<svg width="16" height="16" viewBox="0 0 16 16" fill="none" xmlns="http://www.w3.org/2000/svg">
<path d="M0.199951 8.05071C0.199864 7.02853 0.400964 6.01626 0.792074 5.07187C1.18318 4.12747 1.75649 3.26946 2.47925 2.54664C3.20201 1.82382 4.06028 1.25049 5.00464 0.859304C5.949 0.468113 6.96098 0.266693 7.98315 0.266693C9.00539 0.266606 10.0179 0.467827 10.9623 0.858978C11.9068 1.25013 12.7649 1.82349 13.4877 2.54632C14.2105 3.26914 14.7837 4.12727 15.1749 5.07171C15.566 6.01614 15.7674 7.02848 15.7673 8.05071C15.7672 9.07283 15.5658 10.0849 15.1746 11.0292C14.7833 11.9735 14.2099 12.8314 13.4871 13.5541C12.7642 14.2768 11.9063 14.8501 10.962 15.2411C10.0176 15.6322 9.00528 15.8335 7.98315 15.8334C5.919 15.8334 3.93954 15.0135 2.4799 13.554C1.02026 12.0945 0.200128 10.1149 0.199951 8.05071ZM7.98315 14.9334C8.9787 14.9347 9.96272 14.7192 10.8666 14.302V13.102C9.88093 12.6801 8.85918 12.3479 7.81388 12.1093L7.68075 11.5339C7.61408 11.2713 7.41063 10.6234 7.6993 10.2447C8.22414 9.39024 8.53389 8.42115 8.60197 7.42066C8.7546 6.72159 8.62424 5.99049 8.23934 5.3873C7.81365 4.97218 7.24246 4.73984 6.64787 4.73984C6.05328 4.73984 5.48241 4.97218 5.05672 5.3873C4.67168 5.99044 4.54131 6.7216 4.69409 7.42066C4.76227 8.42143 5.07224 9.39075 5.59741 10.2454C5.88141 10.618 5.70979 11.1187 5.48446 12.1121C4.76179 12.2827 3.81323 12.512 2.9939 12.796C3.6364 13.4727 4.41023 14.0113 5.26799 14.3788C6.12574 14.7463 7.04934 14.935 7.9825 14.9334H7.98315ZM8.934 4.81341C9.2065 5.20002 9.39723 5.63813 9.49455 6.101C9.59187 6.56388 9.59382 7.04168 9.50008 7.5053C9.41686 8.65579 9.05579 9.76907 8.448 10.7494C8.46615 10.9436 8.50301 11.1356 8.55802 11.3227L8.56942 11.3666C9.67103 11.6508 10.7425 12.0407 11.7693 12.5307V13.8014C12.5563 13.2822 13.2288 12.6078 13.7458 11.8194C13.063 11.4952 12.3592 11.2176 11.6388 10.9887L11.3634 10.922C11.1494 9.98863 11.0198 9.61142 11.2738 9.27809C11.6949 8.58974 11.9432 7.80971 11.9978 7.00465C12.1196 6.45298 12.0192 5.87564 11.7185 5.39739C11.5597 5.22989 11.3668 5.09857 11.1528 5.0123C10.9387 4.92602 10.7085 4.88681 10.4779 4.89739C10.3087 4.89338 10.1413 4.93232 9.99129 5.01067C9.99129 5.01067 9.89542 4.81063 9.79142 4.60263C9.70517 4.44891 9.60371 4.30423 9.48869 4.17066C11.332 3.614 12.9265 4.52276 12.9265 6.40276C12.9479 7.58541 12.6386 8.75045 12.0333 9.76669C12.052 9.91014 12.0809 10.052 12.1199 10.1913C12.6639 10.366 13.4832 10.7159 14.1905 11.0339C14.6383 10.1037 14.8701 9.0844 14.8686 8.05201C14.8687 7.14802 14.6907 6.25294 14.3448 5.41774C13.9989 4.58253 13.4918 3.82358 12.8526 3.18434C12.2134 2.54509 11.4547 2.03795 10.6195 1.69199C9.78438 1.34602 8.88942 1.16806 7.98543 1.16806C7.0815 1.16815 6.18641 1.34631 5.35132 1.69231C4.51623 2.03831 3.75736 2.54526 3.11825 3.1845C2.47913 3.82374 1.97222 4.58274 1.62638 5.4179C1.28054 6.25306 1.10253 7.14808 1.10262 8.05201C1.10039 9.48971 1.55065 10.8917 2.3894 12.0593C3.15698 11.7818 3.94038 11.55 4.73543 11.3653C4.79111 11.1638 4.83102 10.9584 4.85522 10.7507C4.24753 9.77057 3.88647 8.65767 3.80314 7.50742C3.70942 7.04369 3.71136 6.56561 3.80868 6.10263C3.90599 5.63965 4.09674 5.20146 4.36922 4.81471C4.65666 4.49665 5.01 4.24482 5.40438 4.07675C5.79875 3.90869 6.22491 3.82844 6.6534 3.8414C7.08125 3.82872 7.50671 3.9091 7.90047 4.07691C8.29423 4.24473 8.64684 4.49599 8.934 4.81341Z" fill="white"/>
</svg>
